<svg viewBox="0 0 383 43" xmlns="http://www.w3.org/2000/svg" data-logo="logo">
        <g transform="translate(0, 1) rotate(0)" id="logogram" style="opacity: 1; transition: 0.2s;"><path fill="white" d="M22.6506 20.6999C22.6506 21.9272 21.6626 22.9221 20.4437 22.9221C19.2249 22.9221 18.2368 21.9272 18.2368 20.6999C18.2368 19.4726 19.2249 18.4777 20.4437 18.4777C21.6626 18.4777 22.6506 19.4726 22.6506 20.6999Z"></path><path fill="white" d="M46.9265 20.6999C46.9265 21.9272 45.9384 22.9221 44.7196 22.9221C43.5007 22.9221 42.5127 21.9272 42.5127 20.6999C42.5127 19.4726 43.5007 18.4777 44.7196 18.4777C45.9384 18.4777 46.9265 19.4726 46.9265 20.6999Z"></path><path fill="white" d="M44.7196 0.699892C45.4655 0.699893 46.2019 0.7413 46.9265 0.821956V3.05966C46.2035 2.96888 45.467 2.92211 44.7196 2.92211C40.8154 2.92211 37.2092 4.19704 34.2861 6.35694C34.8176 6.87712 35.3203 7.427 35.7915 8.00391C38.3125 6.20336 41.3944 5.14434 44.7196 5.14434C45.4689 5.14434 46.2057 5.19805 46.9265 5.30186V7.5509C46.2088 7.42966 45.4715 7.36656 44.7196 7.36656C41.8807 7.36656 39.2524 8.26509 37.097 9.79594C37.4999 10.4185 37.8692 11.065 38.2025 11.7329C40.0284 10.3854 42.2824 9.58878 44.7196 9.58878C45.4754 9.58878 46.2134 9.66529 46.9265 9.81104V12.091C46.2211 11.9082 45.4816 11.811 44.7196 11.811C42.587 11.811 40.6326 12.5713 39.1064 13.8391C39.3876 14.6146 39.6226 15.4126 39.8078 16.2296C41.0193 14.8807 42.7712 14.0332 44.7196 14.0332C45.4934 14.0332 46.2362 14.1669 46.9265 14.4125V16.85C46.2773 16.4719 45.5235 16.2554 44.7196 16.2554C42.2819 16.2554 40.3058 18.2453 40.3058 20.6999C40.3058 23.1545 42.282 25.1443 44.7196 25.1443C47.1573 25.1443 49.1334 23.1545 49.1334 20.6999L49.1333 20.6767V1.19548C57.9785 3.2165 64.5817 11.1817 64.5817 20.6999C64.5817 31.7456 55.6891 40.6999 44.7196 40.6999C40.1486 40.6999 35.9382 39.145 32.5816 36.5319C29.2253 39.1446 25.0136 40.6999 20.4437 40.6999C19.6978 40.6999 18.9614 40.6585 18.2368 40.5778V38.3401C18.9598 38.4309 19.6963 38.4777 20.4437 38.4777C24.348 38.4777 27.9542 37.2027 30.8773 35.0428C30.3458 34.5226 29.8431 33.9728 29.3719 33.3959C26.8509 35.1965 23.7689 36.2554 20.4438 36.2554C19.6945 36.2554 18.9576 36.2017 18.2368 36.0979V33.8489C18.9545 33.9701 19.6918 34.0332 20.4438 34.0332C23.2828 34.0332 25.911 33.1347 28.0664 31.6039C27.6635 30.9813 27.2942 30.3348 26.9609 29.6669C25.135 31.0144 22.881 31.811 20.4438 31.811C19.688 31.811 18.9499 31.7345 18.2368 31.5887V29.3087C18.9422 29.4915 19.6817 29.5888 20.4438 29.5888C22.5764 29.5888 24.5308 28.8285 26.057 27.5607C25.7758 26.7851 25.5408 25.9872 25.3556 25.1701C24.1441 26.519 22.3922 27.3666 20.4438 27.3666C19.6699 27.3666 18.9271 27.2329 18.2368 26.9872V24.5497C18.886 24.9279 19.6398 25.1443 20.4438 25.1443C22.8814 25.1443 24.8576 23.1545 24.8576 20.6999C24.8576 18.2453 22.8814 16.2554 20.4438 16.2554C18.0061 16.2554 16.03 18.2453 16.03 20.6999L16.0299 40.2043C7.18474 38.1833 0.581665 30.2181 0.581665 20.6999C0.581665 9.65419 9.47426 0.69989 20.4438 0.69989C25.0148 0.69989 29.2251 2.25471 32.5817 4.86779C35.938 2.25522 40.1496 0.69989 44.7196 0.699892ZM51.3402 4.21437V6.64126C56.5595 9.13782 60.1679 14.4945 60.1679 20.6999C60.1679 29.291 53.2515 36.2554 44.7196 36.2554C36.1878 36.2554 29.2714 29.291 29.2714 20.6999C29.2714 15.7907 25.3191 11.811 20.4438 11.811C15.5684 11.811 11.6162 15.7907 11.6162 20.6999C11.6162 22.9542 12.4496 25.0125 13.8231 26.5795V20.6999C13.8231 17.018 16.7873 14.0332 20.4438 14.0332C24.1003 14.0332 27.0645 17.018 27.0645 20.6999C27.0645 30.5183 34.9689 38.4777 44.7196 38.4777C54.4703 38.4777 62.3747 30.5183 62.3747 20.6999C62.3747 13.2391 57.8105 6.85165 51.3402 4.21437ZM13.8231 29.5896L13.823 32.2494C9.86521 29.944 7.20241 25.6351 7.20241 20.6999C7.20241 13.3361 13.1308 7.36656 20.4438 7.36656C27.7568 7.36656 33.6851 13.3361 33.6851 20.6999C33.6851 26.8364 38.6254 31.811 44.7196 31.811C50.8138 31.811 55.7541 26.8364 55.7541 20.6999C55.7541 17.0648 54.0204 13.8373 51.3403 11.8102V9.15031C55.2982 11.4557 57.961 15.7647 57.961 20.6999C57.961 28.0637 52.0326 34.0332 44.7196 34.0332C37.4066 34.0332 31.4783 28.0637 31.4782 20.6999C31.4782 14.5634 26.5379 9.58878 20.4438 9.58878C14.3496 9.58878 9.40932 14.5634 9.40932 20.6999C9.40932 24.335 11.1429 27.5624 13.8231 29.5896ZM4.99551 20.6999C4.99551 26.9052 8.60387 32.2619 13.823 34.7585V37.1854C7.35281 34.5481 2.78862 28.1607 2.78862 20.6999C2.78862 10.8815 10.6931 2.92211 20.4438 2.92211C30.1944 2.92211 38.0989 10.8815 38.0989 20.6999C38.0989 24.3818 41.0631 27.3666 44.7196 27.3666C48.3761 27.3666 51.3403 24.3818 51.3403 20.6999L51.3403 14.8203C52.7138 16.3873 53.5472 18.4456 53.5472 20.6999C53.5472 25.6091 49.595 29.5888 44.7196 29.5888C39.8443 29.5888 35.892 25.6091 35.892 20.6999C35.892 12.1088 28.9756 5.14433 20.4438 5.14433C11.9119 5.14433 4.99551 12.1088 4.99551 20.6999Z" clip-rule="evenodd" fill-rule="evenodd"></path></g>
        <g transform="translate(71, 1.5)" id="logotype" style="opacity: 1; transition: 0.2s;"><path d="M12.60 33L6.84 33L15.54 7.54L22.37 7.54L31.29 33L25.50 33L21.42 20.71Q20.68 18.34 19.92 15.51Q19.16 12.68 18.32 9.33L18.32 9.33L19.45 9.33Q18.65 12.70 17.94 15.54Q17.23 18.39 16.53 20.71L16.53 20.71L12.60 33ZM25.86 27.09L12.27 27.09L12.27 23.00L25.86 23.00L25.86 27.09ZM32.16 7.54L37.37 7.54L37.37 33L32.16 33L32.16 7.54ZM50.94 33L45.73 33L45.73 7.54L55.66 7.54Q58.56 7.54 60.60 8.56Q62.63 9.59 63.70 11.45Q64.77 13.31 64.77 15.82L64.77 15.82Q64.77 18.34 63.68 20.16Q62.60 21.98 60.54 22.94Q58.48 23.91 55.54 23.91L55.54 23.91L48.80 23.91L48.80 19.69L54.70 19.69Q56.31 19.69 57.33 19.25Q58.36 18.82 58.87 17.95Q59.38 17.09 59.38 15.82L59.38 15.82Q59.38 14.53 58.87 13.65Q58.36 12.77 57.32 12.30Q56.29 11.84 54.68 11.84L54.68 11.84L50.94 11.84L50.94 33ZM65.67 33L59.90 33L53.69 21.41L59.35 21.41L65.67 33ZM74.95 33.38L74.95 33.38Q72.03 33.38 69.91 32.18Q67.79 30.98 66.65 28.78Q65.52 26.57 65.52 23.55L65.52 23.55Q65.52 20.59 66.64 18.37Q67.77 16.15 69.84 14.90Q71.91 13.65 74.69 13.65L74.69 13.65Q76.57 13.65 78.20 14.25Q79.82 14.85 81.05 16.06Q82.28 17.26 82.97 19.07Q83.67 20.88 83.67 23.34L83.67 23.34L83.67 24.78L67.62 24.78L67.62 21.57L81.15 21.57L78.76 22.42Q78.76 20.93 78.31 19.83Q77.85 18.73 76.96 18.12Q76.06 17.52 74.73 17.52L74.73 17.52Q73.41 17.52 72.48 18.13Q71.55 18.75 71.07 19.80Q70.59 20.85 70.59 22.20L70.59 22.20L70.59 24.47Q70.59 26.13 71.15 27.26Q71.70 28.39 72.70 28.95Q73.70 29.51 75.03 29.51L75.03 29.51Q75.94 29.51 76.68 29.26Q77.41 29.00 77.93 28.50Q78.45 27.99 78.73 27.26L78.73 27.26L83.37 28.13Q82.91 29.70 81.77 30.89Q80.62 32.08 78.91 32.73Q77.19 33.38 74.95 33.38ZM92.48 33.38L92.48 33.38Q90.17 33.38 88.40 32.72Q86.62 32.06 85.49 30.80Q84.36 29.55 84.04 27.77L84.04 27.77L88.81 26.95Q89.18 28.28 90.12 28.95Q91.06 29.62 92.64 29.62L92.64 29.62Q94.09 29.62 94.94 29.06Q95.80 28.51 95.80 27.65L95.80 27.65Q95.80 26.90 95.19 26.42Q94.58 25.94 93.34 25.69L93.34 25.69L90.04 25.00Q87.27 24.44 85.90 23.08Q84.53 21.72 84.53 19.58L84.53 19.58Q84.53 17.74 85.54 16.41Q86.55 15.09 88.35 14.37Q90.14 13.65 92.57 13.65L92.57 13.65Q94.82 13.65 96.48 14.28Q98.14 14.90 99.16 16.05Q100.19 17.19 100.53 18.75L100.53 18.75L95.98 19.55Q95.69 18.58 94.87 17.95Q94.04 17.33 92.64 17.33L92.64 17.33Q91.37 17.33 90.52 17.86Q89.66 18.39 89.66 19.26L89.66 19.26Q89.66 19.99 90.22 20.49Q90.77 20.99 92.12 21.26L92.12 21.26L95.56 21.94Q98.33 22.51 99.68 23.78Q101.03 25.05 101.03 27.10L101.03 27.10Q101.03 28.98 99.93 30.39Q98.84 31.80 96.92 32.59Q94.99 33.38 92.48 33.38ZM108.80 33.24L108.80 33.24Q106.82 33.24 105.33 32.38Q103.84 31.51 103.03 29.90Q102.22 28.28 102.22 26.04L102.22 26.04L102.22 13.89L107.35 13.89L107.35 25.16Q107.35 26.93 108.27 27.94Q109.19 28.95 110.80 28.95L110.80 28.95Q111.89 28.95 112.73 28.48Q113.57 28.01 114.04 27.11Q114.51 26.22 114.51 24.95L114.51 24.95L114.51 13.89L119.64 13.89L119.64 33L114.80 33L114.73 28.23L115.02 28.23Q114.27 30.64 112.72 31.94Q111.18 33.24 108.80 33.24ZM126.86 33L121.74 33L121.74 13.89L126.49 13.89L126.74 18.64L126.37 18.64Q126.81 16.88 127.67 15.77Q128.54 14.66 129.70 14.13Q130.86 13.60 132.14 13.60L132.14 13.60Q134.21 13.60 135.48 14.91Q136.74 16.22 137.34 18.95L137.34 18.95L136.74 18.95Q137.17 17.12 138.13 15.94Q139.10 14.75 140.42 14.18Q141.75 13.60 143.20 13.60L143.20 13.60Q144.96 13.60 146.34 14.37Q147.71 15.14 148.51 16.59Q149.30 18.03 149.30 20.11L149.30 20.11L149.30 33L144.17 33L144.17 21.09Q144.17 19.46 143.29 18.68Q142.41 17.89 141.13 17.89L141.13 17.89Q140.18 17.89 139.47 18.31Q138.76 18.73 138.37 19.48Q137.99 20.23 137.99 21.24L137.99 21.24L137.99 33L133.03 33L133.03 20.95Q133.03 19.55 132.20 18.72Q131.37 17.89 130.06 17.89L130.06 17.89Q129.15 17.89 128.43 18.30Q127.70 18.71 127.28 19.51Q126.86 20.30 126.86 21.45L126.86 21.45L126.86 33ZM160.03 33.38L160.03 33.38Q157.11 33.38 154.99 32.18Q152.87 30.98 151.73 28.78Q150.60 26.57 150.60 23.55L150.60 23.55Q150.60 20.59 151.73 18.37Q152.85 16.15 154.92 14.90Q156.99 13.65 159.78 13.65L159.78 13.65Q161.65 13.65 163.28 14.25Q164.90 14.85 166.13 16.06Q167.36 17.26 168.06 19.07Q168.75 20.88 168.75 23.34L168.75 23.34L168.75 24.78L152.70 24.78L152.70 21.57L166.24 21.57L163.84 22.42Q163.84 20.93 163.39 19.83Q162.94 18.73 162.04 18.12Q161.14 17.52 159.81 17.52L159.81 17.52Q158.49 17.52 157.56 18.13Q156.63 18.75 156.15 19.80Q155.67 20.85 155.67 22.20L155.67 22.20L155.67 24.47Q155.67 26.13 156.23 27.26Q156.78 28.39 157.78 28.95Q158.78 29.51 160.12 29.51L160.12 29.51Q161.02 29.51 161.76 29.26Q162.49 29.00 163.01 28.50Q163.53 27.99 163.81 27.26L163.81 27.26L168.46 28.13Q168.00 29.70 166.85 30.89Q165.71 32.08 163.99 32.73Q162.27 33.38 160.03 33.38ZM180.40 33L174.64 33L183.34 7.54L190.17 7.54L199.09 33L193.30 33L189.22 20.71Q188.48 18.34 187.72 15.51Q186.96 12.68 186.12 9.33L186.12 9.33L187.25 9.33Q186.45 12.70 185.74 15.54Q185.03 18.39 184.33 20.71L184.33 20.71L180.40 33ZM193.66 27.09L180.07 27.09L180.07 23.00L193.66 23.00L193.66 27.09ZM204.97 21.94L204.97 21.94L204.97 33L199.84 33L199.84 13.89L204.68 13.89L204.77 18.66L204.46 18.66Q205.21 16.27 206.74 14.96Q208.27 13.65 210.70 13.65L210.70 13.65Q212.68 13.65 214.15 14.52Q215.62 15.38 216.44 17.00Q217.26 18.61 217.26 20.85L217.26 20.85L217.26 33L212.13 33L212.13 21.74Q212.13 19.96 211.22 18.95Q210.30 17.94 208.68 17.94L208.68 17.94Q207.60 17.94 206.76 18.41Q205.91 18.88 205.44 19.77Q204.97 20.66 204.97 21.94ZM224.69 33.38L224.69 33.38Q222.88 33.38 221.44 32.74Q219.99 32.09 219.16 30.82Q218.33 29.55 218.33 27.65L218.33 27.65Q218.33 26.06 218.92 24.98Q219.51 23.91 220.53 23.26Q221.55 22.61 222.84 22.27Q224.13 21.93 225.55 21.79L225.55 21.79Q227.20 21.62 228.22 21.47Q229.24 21.33 229.71 21.01Q230.18 20.70 230.18 20.08L230.18 20.08L230.18 19.99Q230.18 19.17 229.84 18.61Q229.49 18.05 228.83 17.75Q228.16 17.45 227.19 17.45L227.19 17.45Q226.20 17.45 225.46 17.75Q224.73 18.05 224.26 18.54Q223.80 19.04 223.58 19.65L223.58 19.65L218.88 18.87Q219.38 17.21 220.52 16.05Q221.67 14.88 223.37 14.27Q225.07 13.65 227.19 13.65L227.19 13.65Q228.74 13.65 230.19 14.02Q231.65 14.39 232.80 15.16Q233.95 15.93 234.63 17.16Q235.30 18.39 235.30 20.13L235.30 20.13L235.30 33L230.45 33L230.45 30.35L230.28 30.35Q229.82 31.24 229.05 31.91Q228.28 32.59 227.19 32.98Q226.11 33.38 224.69 33.38ZM226.14 29.77L226.14 29.77Q227.36 29.77 228.27 29.29Q229.19 28.81 229.70 27.99Q230.21 27.17 230.21 26.16L230.21 26.16L230.21 24.10Q229.99 24.27 229.53 24.40Q229.07 24.54 228.50 24.64Q227.94 24.75 227.39 24.83Q226.84 24.92 226.42 24.97L226.42 24.97Q225.48 25.10 224.76 25.41Q224.04 25.72 223.65 26.22Q223.26 26.73 223.26 27.51L223.26 27.51Q223.26 28.25 223.63 28.75Q224.01 29.26 224.65 29.51Q225.29 29.77 226.14 29.77ZM237.40 7.54L242.53 7.54L242.53 33L237.40 33L237.40 7.54ZM244.48 39.77L244.48 39.77L245.66 35.91L246.29 36.06Q247.31 36.33 248.12 36.21Q248.92 36.09 249.41 35.56Q249.89 35.03 250.00 34.08L250.00 34.08L250.13 33.05L242.96 13.89L248.41 13.89L251.62 23.81Q252.20 25.69 252.57 27.57Q252.94 29.45 253.42 31.50L253.42 31.50L252.22 31.50Q252.68 29.45 253.14 27.56Q253.60 25.67 254.22 23.81L254.22 23.81L257.57 13.89L262.95 13.89L254.83 35.26Q254.25 36.79 253.35 37.92Q252.44 39.05 251.09 39.67Q249.74 40.28 247.83 40.28L247.83 40.28Q246.80 40.28 245.91 40.14Q245.02 39.99 244.48 39.77ZM271.00 33.38L271.00 33.38Q268.69 33.38 266.91 32.72Q265.14 32.06 264.01 30.80Q262.88 29.55 262.56 27.77L262.56 27.77L267.32 26.95Q267.70 28.28 268.64 28.95Q269.58 29.62 271.15 29.62L271.15 29.62Q272.60 29.62 273.46 29.06Q274.31 28.51 274.31 27.65L274.31 27.65Q274.31 26.90 273.71 26.42Q273.10 25.94 271.85 25.69L271.85 25.69L268.55 25.00Q265.79 24.44 264.42 23.08Q263.05 21.72 263.05 19.58L263.05 19.58Q263.05 17.74 264.06 16.41Q265.07 15.09 266.86 14.37Q268.66 13.65 271.08 13.65L271.08 13.65Q273.34 13.65 275.00 14.28Q276.66 14.90 277.68 16.05Q278.71 17.19 279.05 18.75L279.05 18.75L274.50 19.55Q274.21 18.58 273.38 17.95Q272.55 17.33 271.15 17.33L271.15 17.33Q269.89 17.33 269.03 17.86Q268.18 18.39 268.18 19.26L268.18 19.26Q268.18 19.99 268.73 20.49Q269.29 20.99 270.64 21.26L270.64 21.26L274.07 21.94Q276.84 22.51 278.19 23.78Q279.54 25.05 279.54 27.10L279.54 27.10Q279.54 28.98 278.45 30.39Q277.36 31.80 275.43 32.59Q273.51 33.38 271.00 33.38ZM289.37 33.38L289.37 33.38Q286.45 33.38 284.33 32.18Q282.21 30.98 281.07 28.78Q279.93 26.57 279.93 23.55L279.93 23.55Q279.93 20.59 281.06 18.37Q282.19 16.15 284.26 14.90Q286.33 13.65 289.11 13.65L289.11 13.65Q290.99 13.65 292.62 14.25Q294.24 14.85 295.47 16.06Q296.70 17.26 297.39 19.07Q298.08 20.88 298.08 23.34L298.08 23.34L298.08 24.78L282.04 24.78L282.04 21.57L295.57 21.57L293.18 22.42Q293.18 20.93 292.73 19.83Q292.27 18.73 291.38 18.12Q290.48 17.52 289.15 17.52L289.15 17.52Q287.83 17.52 286.90 18.13Q285.97 18.75 285.49 19.80Q285.01 20.85 285.01 22.20L285.01 22.20L285.01 24.47Q285.01 26.13 285.57 27.26Q286.12 28.39 287.12 28.95Q288.12 29.51 289.45 29.51L289.45 29.51Q290.36 29.51 291.09 29.26Q291.83 29.00 292.35 28.50Q292.87 27.99 293.14 27.26L293.14 27.26L297.79 28.13Q297.33 29.70 296.19 30.89Q295.04 32.08 293.32 32.73Q291.61 33.38 289.37 33.38ZM304.44 33L299.31 33L299.31 13.89L304.27 13.89L304.27 17.23L304.47 17.23Q305.00 15.45 306.24 14.54Q307.48 13.64 309.09 13.64L309.09 13.64Q309.48 13.64 309.93 13.68Q310.39 13.72 310.75 13.81L310.75 13.81L310.75 18.39Q310.40 18.27 309.75 18.20Q309.10 18.13 308.52 18.13L308.52 18.13Q307.36 18.13 306.42 18.64Q305.48 19.14 304.96 20.04Q304.44 20.93 304.44 22.13L304.44 22.13L304.44 33Z" fill="#ffffff"></path></g>
        
      </svg>